<svg width="1024" height="1024" viewBox="0 0 1024 1024" fill="none" xmlns="http://www.w3.org/2000/svg">
<path d="M419.836 429.671C390.735 429.671 367.761 455.239 367.761 486.432C367.761 517.625 391.246 543.193 419.836 543.193C448.937 543.193 471.912 517.625 471.912 486.432C472.422 455.239 448.937 429.671 419.836 429.671ZM606.185 429.671C577.084 429.671 554.109 455.239 554.109 486.432C554.109 517.625 577.594 543.193 606.185 543.193C635.286 543.193 658.26 517.625 658.26 486.432C658.26 455.239 635.286 429.671 606.185 429.671Z" fill="#7289DA"/>
<path d="M854.311 0.64093H170.182C112.49 0.64093 65.5199 47.686 65.5199 105.981V797.338C65.5199 855.633 112.49 902.678 170.182 902.678H749.139L722.08 808.077L787.43 868.929L849.206 926.201L958.973 1023.36V105.981C958.973 47.686 912.003 0.64093 854.311 0.64093Z" fill="#5865F2"/>
<path d="M791.364 542.864L958.949 518.592V571.925L819.193 594.67L814.618 660.799C813.693 674.186 802.98 685.011 789.704 685.973L613.87 698.624C613.236 698.67 612.588 698.693 611.941 698.693C598.711 698.693 587.277 688.729 585.348 675.52L576.414 614.398H448.697L439.763 675.52C437.83 688.733 426.41 698.698 413.198 698.698C412.542 698.698 411.885 698.67 411.219 698.624L235.407 685.973C222.127 685.011 211.419 674.186 210.493 660.799L205.914 594.67L66.0983 571.925V518.592L233.742 542.859C246.872 544.138 257.069 554.701 257.991 567.978L262.524 633.522L390.182 642.709L398.869 583.307C400.803 570.094 412.241 560.134 425.475 560.134H599.632C612.871 560.134 624.308 570.094 626.242 583.307L634.925 642.709L762.583 633.522L767.116 567.978C768.037 554.705 778.235 544.143 791.364 542.864Z" fill="white"/>
<path d="M378.032 374.533C378.032 429.978 333.498 474.894 278.553 474.894C223.636 474.894 179.089 429.978 179.089 374.533C179.089 319.124 223.636 274.231 278.553 274.231C333.498 274.231 378.032 319.124 378.032 374.533Z" fill="white"/>
<path d="M354.095 380.485C354.095 417.262 324.548 447.069 288.064 447.069C251.598 447.069 222.032 417.262 222.032 380.485C222.032 343.708 251.598 313.874 288.064 313.874C324.548 313.874 354.095 343.708 354.095 380.485Z" fill="#414042"/>
<path d="M512.546 484.024C494.861 484.024 480.527 470.875 480.527 454.668V362.284C480.527 346.09 494.861 332.928 512.546 332.928C530.232 332.928 544.598 346.09 544.598 362.284V454.668C544.598 470.875 530.232 484.024 512.546 484.024Z" fill="white"/>
<path d="M647.078 374.533C647.078 429.978 691.611 474.894 746.565 474.894C801.478 474.894 846.02 429.978 846.02 374.533C846.02 319.124 801.478 274.231 746.565 274.231C691.611 274.231 647.078 319.124 647.078 374.533Z" fill="white"/>
<path d="M671.02 380.485C671.02 417.262 700.558 447.069 737.015 447.069C773.508 447.069 803.047 417.262 803.047 380.485C803.047 343.708 773.508 313.874 737.015 313.874C700.558 313.874 671.02 343.708 671.02 380.485Z" fill="#414042"/>
</svg>
