<svg width="814" height="932" viewBox="0 0 814 932" fill="none" xmlns="http://www.w3.org/2000/svg">
<path d="M323.084 391.068C296.587 391.068 275.668 414.339 275.668 442.729C275.668 471.12 297.051 494.391 323.084 494.391C349.58 494.391 370.499 471.12 370.499 442.729C370.964 414.339 349.58 391.068 323.084 391.068ZM492.757 391.068C466.26 391.068 445.341 414.339 445.341 442.729C445.341 471.12 466.725 494.391 492.757 494.391C519.254 494.391 540.172 471.12 540.172 442.729C540.172 414.339 519.254 391.068 492.757 391.068Z" fill="#7289DA"/>
<path d="M718.679 0.583313H95.7693C43.2404 0.583313 0.473396 43.4016 0.473396 96.4592V725.703C0.473396 778.76 43.2404 821.578 95.7693 821.578H622.918L598.281 735.476L657.783 790.861L714.031 842.988L813.975 931.417V96.4592C813.975 43.4016 771.208 0.583313 718.679 0.583313Z" fill="#7289DA"/>
<path d="M661.365 494.091L813.954 478.597V520.449L686.703 541.243L682.539 601.43C681.696 613.615 671.941 623.467 659.854 624.343L499.754 635.857C499.177 635.899 498.587 635.92 497.997 635.92C485.951 635.92 475.541 626.851 473.785 614.829L465.65 559.198H349.362L341.228 614.829C339.467 626.855 329.069 635.924 317.04 635.924C316.442 635.924 315.844 635.899 315.238 635.857L155.158 624.343C143.066 623.467 133.316 613.615 132.473 601.43L128.304 541.243L1 520.541L1 471.55L153.642 494.087C165.597 495.251 174.882 504.864 175.721 516.949L179.848 576.604L296.083 584.966L303.993 530.901C305.753 518.875 316.168 509.81 328.218 509.81H486.79C498.845 509.81 509.258 518.875 511.019 530.901L518.925 584.966L635.159 576.604L639.287 516.949C640.126 504.869 649.411 495.255 661.365 494.091Z" fill="white"/>
<path d="M285.02 340.883C285.02 391.348 244.472 432.227 194.443 432.227C144.44 432.227 103.88 391.348 103.88 340.883C103.88 290.452 144.44 249.593 194.443 249.593C244.472 249.593 285.02 290.452 285.02 340.883Z" fill="white"/>
<path d="M263.226 346.301C263.226 379.773 236.322 406.902 203.103 406.902C169.9 406.902 142.98 379.773 142.98 346.301C142.98 312.828 169.9 285.674 203.103 285.674C236.322 285.674 263.226 312.828 263.226 346.301Z" fill="#414042"/>
<path d="M407.498 440.537C391.395 440.537 378.344 428.57 378.344 413.819V329.735C378.344 314.996 391.395 303.017 407.498 303.017C423.601 303.017 436.681 314.996 436.681 329.735V413.819C436.681 428.57 423.601 440.537 407.498 440.537Z" fill="white"/>
<path d="M529.99 340.883C529.99 391.348 570.538 432.227 620.575 432.227C670.574 432.227 711.13 391.348 711.13 340.883C711.13 290.452 670.574 249.593 620.575 249.593C570.538 249.593 529.99 290.452 529.99 340.883Z" fill="white"/>
<path d="M551.79 346.301C551.79 379.773 578.685 406.902 611.88 406.902C645.107 406.902 672.002 379.773 672.002 346.301C672.002 312.828 645.107 285.674 611.88 285.674C578.685 285.674 551.79 312.828 551.79 346.301Z" fill="#414042"/>
</svg>
